<mxfile host="app.diagrams.net" modified="2022-08-22T16:39:14.084Z" agent="5.0 (Macintosh; Intel Mac OS X 10_15_7) AppleWebKit/537.36 (KHTML, like Gecko) Chrome/104.0.0.0 Safari/537.36" etag="rqGaN3xjNANzYsm_H4OV" version="20.2.5" type="github">
  <diagram id="R9DrTf-DViBxmmx2WeWM" name="Page-1">
    <mxGraphModel dx="786" dy="1161" grid="1" gridSize="10" guides="1" tooltips="1" connect="1" arrows="1" fold="1" page="1" pageScale="1" pageWidth="827" pageHeight="1169" math="0" shadow="0">
      <root>
        <mxCell id="0" />
        <mxCell id="1" parent="0" />
        <mxCell id="4Tgy6uAZpTd_UVClKifX-2" value="&lt;font style=&quot;font-size: 18px;&quot;&gt;HardWare&lt;/font&gt;" style="rounded=0;whiteSpace=wrap;html=1;" parent="1" vertex="1">
          <mxGeometry x="702.5" y="420" width="305" height="60" as="geometry" />
        </mxCell>
        <mxCell id="4Tgy6uAZpTd_UVClKifX-3" value="&lt;font style=&quot;font-size: 18px;&quot;&gt;Type 1 HyperVisor&amp;nbsp;&lt;/font&gt;" style="text;html=1;strokeColor=none;fillColor=none;align=center;verticalAlign=middle;whiteSpace=wrap;rounded=0;" parent="1" vertex="1">
          <mxGeometry x="145" y="80" width="180" height="40" as="geometry" />
        </mxCell>
        <mxCell id="4Tgy6uAZpTd_UVClKifX-4" value="&lt;div style=&quot;text-align: center;&quot;&gt;&lt;span style=&quot;background-color: initial;&quot;&gt;Container Model&amp;nbsp;&lt;/span&gt;&lt;/div&gt;" style="text;whiteSpace=wrap;html=1;fontSize=18;" parent="1" vertex="1">
          <mxGeometry x="772.5" y="80" width="190" height="50" as="geometry" />
        </mxCell>
        <mxCell id="4Tgy6uAZpTd_UVClKifX-5" value="Host OS&amp;nbsp;" style="rounded=0;whiteSpace=wrap;html=1;fontSize=18;" parent="1" vertex="1">
          <mxGeometry x="702.5" y="380" width="305" height="30" as="geometry" />
        </mxCell>
        <mxCell id="4Tgy6uAZpTd_UVClKifX-6" value="Containers&amp;nbsp;" style="rounded=0;whiteSpace=wrap;html=1;fontSize=18;" parent="1" vertex="1">
          <mxGeometry x="702.5" y="340" width="305" height="30" as="geometry" />
        </mxCell>
        <mxCell id="4Tgy6uAZpTd_UVClKifX-10" value="&lt;font style=&quot;font-size: 18px;&quot;&gt;HardWare&lt;/font&gt;" style="rounded=0;whiteSpace=wrap;html=1;" parent="1" vertex="1">
          <mxGeometry x="82.5" y="380" width="305" height="60" as="geometry" />
        </mxCell>
        <mxCell id="4Tgy6uAZpTd_UVClKifX-12" value="HyperVisor" style="rounded=0;whiteSpace=wrap;html=1;fontSize=18;" parent="1" vertex="1">
          <mxGeometry x="82.5" y="340" width="305" height="30" as="geometry" />
        </mxCell>
        <mxCell id="4Tgy6uAZpTd_UVClKifX-13" value="Guest OS" style="rounded=0;whiteSpace=wrap;html=1;fontSize=18;" parent="1" vertex="1">
          <mxGeometry x="82.5" y="270" width="75" height="60" as="geometry" />
        </mxCell>
        <mxCell id="4Tgy6uAZpTd_UVClKifX-14" value="Guest OS" style="rounded=0;whiteSpace=wrap;html=1;fontSize=18;" parent="1" vertex="1">
          <mxGeometry x="202.5" y="270" width="75" height="60" as="geometry" />
        </mxCell>
        <mxCell id="4Tgy6uAZpTd_UVClKifX-15" value="Guest OS" style="rounded=0;whiteSpace=wrap;html=1;fontSize=18;" parent="1" vertex="1">
          <mxGeometry x="312.5" y="270" width="75" height="60" as="geometry" />
        </mxCell>
        <mxCell id="4Tgy6uAZpTd_UVClKifX-16" value="&lt;div style=&quot;text-align: justify;&quot;&gt;&lt;span style=&quot;background-color: initial;&quot;&gt;* Running on Baremetal Servers&lt;/span&gt;&lt;/div&gt;&lt;div style=&quot;text-align: justify;&quot;&gt;&lt;span style=&quot;background-color: initial;&quot;&gt;* E.g., Microsoft Hyper V,&amp;nbsp;&lt;/span&gt;&lt;/div&gt;" style="text;html=1;align=center;verticalAlign=middle;resizable=0;points=[];autosize=1;strokeColor=none;fillColor=none;fontSize=18;" parent="1" vertex="1">
          <mxGeometry x="95" y="130" width="280" height="60" as="geometry" />
        </mxCell>
        <mxCell id="4Tgy6uAZpTd_UVClKifX-17" value="&lt;div style=&quot;text-align: justify;&quot;&gt;&lt;span style=&quot;background-color: initial;&quot;&gt;* Runs on an Operating System&amp;nbsp;&lt;/span&gt;&lt;/div&gt;&lt;div style=&quot;text-align: justify;&quot;&gt;&lt;br&gt;&lt;/div&gt;" style="text;html=1;align=center;verticalAlign=middle;resizable=0;points=[];autosize=1;strokeColor=none;fillColor=none;fontSize=18;" parent="1" vertex="1">
          <mxGeometry x="715" y="130" width="280" height="60" as="geometry" />
        </mxCell>
        <mxCell id="4Tgy6uAZpTd_UVClKifX-18" value="VM1&amp;nbsp;" style="text;html=1;align=center;verticalAlign=middle;resizable=0;points=[];autosize=1;strokeColor=none;fillColor=none;fontSize=18;" parent="1" vertex="1">
          <mxGeometry x="82.5" y="230" width="70" height="40" as="geometry" />
        </mxCell>
        <mxCell id="4Tgy6uAZpTd_UVClKifX-19" value="&lt;span style=&quot;text-align: center;&quot;&gt;VM2&lt;/span&gt;" style="text;whiteSpace=wrap;html=1;fontSize=18;" parent="1" vertex="1">
          <mxGeometry x="200" y="230" width="80" height="50" as="geometry" />
        </mxCell>
        <mxCell id="4Tgy6uAZpTd_UVClKifX-20" value="&lt;span style=&quot;text-align: center;&quot;&gt;VM3&lt;/span&gt;" style="text;whiteSpace=wrap;html=1;fontSize=18;" parent="1" vertex="1">
          <mxGeometry x="312.5" y="230" width="80" height="50" as="geometry" />
        </mxCell>
        <mxCell id="4Tgy6uAZpTd_UVClKifX-22" value="Guest OS" style="rounded=0;whiteSpace=wrap;html=1;fontSize=18;" parent="1" vertex="1">
          <mxGeometry x="702.5" y="270" width="75" height="60" as="geometry" />
        </mxCell>
        <mxCell id="4Tgy6uAZpTd_UVClKifX-23" value="Guest OS" style="rounded=0;whiteSpace=wrap;html=1;fontSize=18;" parent="1" vertex="1">
          <mxGeometry x="822.5" y="270" width="75" height="60" as="geometry" />
        </mxCell>
        <mxCell id="4Tgy6uAZpTd_UVClKifX-24" value="Guest OS" style="rounded=0;whiteSpace=wrap;html=1;fontSize=18;" parent="1" vertex="1">
          <mxGeometry x="932.5" y="270" width="75" height="60" as="geometry" />
        </mxCell>
        <mxCell id="4Tgy6uAZpTd_UVClKifX-25" value="VM1&amp;nbsp;" style="text;html=1;align=center;verticalAlign=middle;resizable=0;points=[];autosize=1;strokeColor=none;fillColor=none;fontSize=18;" parent="1" vertex="1">
          <mxGeometry x="702.5" y="230" width="70" height="40" as="geometry" />
        </mxCell>
        <mxCell id="4Tgy6uAZpTd_UVClKifX-26" value="&lt;span style=&quot;text-align: center;&quot;&gt;VM2&lt;/span&gt;" style="text;whiteSpace=wrap;html=1;fontSize=18;" parent="1" vertex="1">
          <mxGeometry x="820" y="230" width="80" height="50" as="geometry" />
        </mxCell>
        <mxCell id="4Tgy6uAZpTd_UVClKifX-27" value="&lt;span style=&quot;text-align: center;&quot;&gt;VM3&lt;/span&gt;" style="text;whiteSpace=wrap;html=1;fontSize=18;" parent="1" vertex="1">
          <mxGeometry x="932.5" y="230" width="80" height="50" as="geometry" />
        </mxCell>
        <mxCell id="il2n_duY382KwySKNgu3-1" value="&lt;font style=&quot;font-size: 18px;&quot;&gt;HardWare&lt;/font&gt;" style="rounded=0;whiteSpace=wrap;html=1;" vertex="1" parent="1">
          <mxGeometry x="1230" y="420" width="305" height="60" as="geometry" />
        </mxCell>
        <mxCell id="il2n_duY382KwySKNgu3-2" value="&lt;div style=&quot;text-align: center;&quot;&gt;Containers&amp;nbsp;&lt;/div&gt;" style="text;whiteSpace=wrap;html=1;fontSize=18;" vertex="1" parent="1">
          <mxGeometry x="1300" y="80" width="190" height="50" as="geometry" />
        </mxCell>
        <mxCell id="il2n_duY382KwySKNgu3-3" value="Host OS&amp;nbsp;" style="rounded=0;whiteSpace=wrap;html=1;fontSize=18;" vertex="1" parent="1">
          <mxGeometry x="1230" y="380" width="305" height="30" as="geometry" />
        </mxCell>
        <mxCell id="il2n_duY382KwySKNgu3-4" value="HyperVisors" style="rounded=0;whiteSpace=wrap;html=1;fontSize=18;" vertex="1" parent="1">
          <mxGeometry x="1230" y="340" width="305" height="30" as="geometry" />
        </mxCell>
        <mxCell id="il2n_duY382KwySKNgu3-5" value="&lt;div style=&quot;text-align: justify;&quot;&gt;&lt;br&gt;&lt;/div&gt;" style="text;html=1;align=center;verticalAlign=middle;resizable=0;points=[];autosize=1;strokeColor=none;fillColor=none;fontSize=18;" vertex="1" parent="1">
          <mxGeometry x="1372.5" y="140" width="20" height="40" as="geometry" />
        </mxCell>
        <mxCell id="il2n_duY382KwySKNgu3-6" value="Guest OS" style="rounded=0;whiteSpace=wrap;html=1;fontSize=18;" vertex="1" parent="1">
          <mxGeometry x="1230" y="270" width="75" height="60" as="geometry" />
        </mxCell>
        <mxCell id="il2n_duY382KwySKNgu3-7" value="Guest OS" style="rounded=0;whiteSpace=wrap;html=1;fontSize=18;" vertex="1" parent="1">
          <mxGeometry x="1350" y="270" width="75" height="60" as="geometry" />
        </mxCell>
        <mxCell id="il2n_duY382KwySKNgu3-8" value="Guest OS" style="rounded=0;whiteSpace=wrap;html=1;fontSize=18;" vertex="1" parent="1">
          <mxGeometry x="1460" y="270" width="75" height="60" as="geometry" />
        </mxCell>
        <mxCell id="il2n_duY382KwySKNgu3-9" value="VM1&amp;nbsp;" style="text;html=1;align=center;verticalAlign=middle;resizable=0;points=[];autosize=1;strokeColor=none;fillColor=none;fontSize=18;" vertex="1" parent="1">
          <mxGeometry x="1230" y="230" width="70" height="40" as="geometry" />
        </mxCell>
        <mxCell id="il2n_duY382KwySKNgu3-10" value="&lt;span style=&quot;text-align: center;&quot;&gt;VM2&lt;/span&gt;" style="text;whiteSpace=wrap;html=1;fontSize=18;" vertex="1" parent="1">
          <mxGeometry x="1347.5" y="230" width="80" height="50" as="geometry" />
        </mxCell>
        <mxCell id="il2n_duY382KwySKNgu3-11" value="&lt;span style=&quot;text-align: center;&quot;&gt;VM3&lt;/span&gt;" style="text;whiteSpace=wrap;html=1;fontSize=18;" vertex="1" parent="1">
          <mxGeometry x="1460" y="230" width="80" height="50" as="geometry" />
        </mxCell>
      </root>
    </mxGraphModel>
  </diagram>
</mxfile>
